<mxfile host="app.diagrams.net" modified="2021-07-07T15:00:53.023Z" agent="5.0 (Windows NT 10.0; WOW64) AppleWebKit/537.36 (KHTML, like Gecko) Chrome/91.0.4472.124 Safari/537.36" etag="uBNlV4EX3E4y67Ed3B8_" version="14.8.4" type="github">
  <diagram id="C5RBs43oDa-KdzZeNtuy" name="Page-1">
    <mxGraphModel dx="1185" dy="635" grid="1" gridSize="10" guides="1" tooltips="1" connect="1" arrows="1" fold="1" page="1" pageScale="1" pageWidth="827" pageHeight="1169" math="0" shadow="0">
      <root>
        <mxCell id="WIyWlLk6GJQsqaUBKTNV-0" />
        <mxCell id="WIyWlLk6GJQsqaUBKTNV-1" parent="WIyWlLk6GJQsqaUBKTNV-0" />
        <mxCell id="WIyWlLk6GJQsqaUBKTNV-2" value="" style="rounded=0;html=1;jettySize=auto;orthogonalLoop=1;fontSize=11;endArrow=block;endFill=0;endSize=8;strokeWidth=1;shadow=0;labelBackgroundColor=none;edgeStyle=orthogonalEdgeStyle;" parent="WIyWlLk6GJQsqaUBKTNV-1" source="WIyWlLk6GJQsqaUBKTNV-3" target="WIyWlLk6GJQsqaUBKTNV-6" edge="1">
          <mxGeometry relative="1" as="geometry" />
        </mxCell>
        <mxCell id="WIyWlLk6GJQsqaUBKTNV-3" value="Get bkg&amp;amp;trackType from routelink" style="rounded=1;whiteSpace=wrap;html=1;fontSize=12;glass=0;strokeWidth=1;shadow=0;" parent="WIyWlLk6GJQsqaUBKTNV-1" vertex="1">
          <mxGeometry x="188" y="20" width="120" height="40" as="geometry" />
        </mxCell>
        <mxCell id="WIyWlLk6GJQsqaUBKTNV-4" value="Yes" style="rounded=0;html=1;jettySize=auto;orthogonalLoop=1;fontSize=11;endArrow=block;endFill=0;endSize=8;strokeWidth=1;shadow=0;labelBackgroundColor=none;edgeStyle=orthogonalEdgeStyle;" parent="WIyWlLk6GJQsqaUBKTNV-1" source="WIyWlLk6GJQsqaUBKTNV-6" edge="1">
          <mxGeometry y="20" relative="1" as="geometry">
            <mxPoint as="offset" />
            <mxPoint x="248" y="230" as="targetPoint" />
          </mxGeometry>
        </mxCell>
        <mxCell id="WIyWlLk6GJQsqaUBKTNV-5" value="No" style="edgeStyle=orthogonalEdgeStyle;rounded=0;html=1;jettySize=auto;orthogonalLoop=1;fontSize=11;endArrow=block;endFill=0;endSize=8;strokeWidth=1;shadow=0;labelBackgroundColor=none;" parent="WIyWlLk6GJQsqaUBKTNV-1" source="WIyWlLk6GJQsqaUBKTNV-6" target="WIyWlLk6GJQsqaUBKTNV-7" edge="1">
          <mxGeometry y="10" relative="1" as="geometry">
            <mxPoint as="offset" />
          </mxGeometry>
        </mxCell>
        <mxCell id="WIyWlLk6GJQsqaUBKTNV-6" value="load&lt;br&gt;CargoTrack &lt;br&gt;data" style="rhombus;whiteSpace=wrap;html=1;shadow=0;fontFamily=Helvetica;fontSize=12;align=center;strokeWidth=1;spacing=6;spacingTop=-4;" parent="WIyWlLk6GJQsqaUBKTNV-1" vertex="1">
          <mxGeometry x="198" y="110" width="100" height="80" as="geometry" />
        </mxCell>
        <mxCell id="WIyWlLk6GJQsqaUBKTNV-7" value="popup error/warning message" style="rounded=1;whiteSpace=wrap;html=1;fontSize=12;glass=0;strokeWidth=1;shadow=0;" parent="WIyWlLk6GJQsqaUBKTNV-1" vertex="1">
          <mxGeometry x="38" y="130" width="120" height="40" as="geometry" />
        </mxCell>
        <mxCell id="n0gfTQVw-aHXXpMBViYb-2" style="edgeStyle=orthogonalEdgeStyle;rounded=0;orthogonalLoop=1;jettySize=auto;html=1;entryX=0;entryY=0.5;entryDx=0;entryDy=0;" edge="1" parent="WIyWlLk6GJQsqaUBKTNV-1" source="n0gfTQVw-aHXXpMBViYb-1" target="n0gfTQVw-aHXXpMBViYb-3">
          <mxGeometry relative="1" as="geometry">
            <mxPoint x="348" y="180" as="targetPoint" />
          </mxGeometry>
        </mxCell>
        <mxCell id="n0gfTQVw-aHXXpMBViYb-1" value="pass the routes data to the CargoTrackInfo" style="rounded=1;whiteSpace=wrap;html=1;fontSize=12;glass=0;strokeWidth=1;shadow=0;" vertex="1" parent="WIyWlLk6GJQsqaUBKTNV-1">
          <mxGeometry x="188" y="230" width="120" height="40" as="geometry" />
        </mxCell>
        <mxCell id="n0gfTQVw-aHXXpMBViYb-7" style="edgeStyle=orthogonalEdgeStyle;rounded=0;orthogonalLoop=1;jettySize=auto;html=1;entryX=0;entryY=0.5;entryDx=0;entryDy=0;" edge="1" parent="WIyWlLk6GJQsqaUBKTNV-1" source="n0gfTQVw-aHXXpMBViYb-3" target="n0gfTQVw-aHXXpMBViYb-6">
          <mxGeometry relative="1" as="geometry" />
        </mxCell>
        <mxCell id="n0gfTQVw-aHXXpMBViYb-3" value="CargoTrackTitle" style="rounded=1;whiteSpace=wrap;html=1;fontSize=12;glass=0;strokeWidth=1;shadow=0;" vertex="1" parent="WIyWlLk6GJQsqaUBKTNV-1">
          <mxGeometry x="368" y="175" width="120" height="40" as="geometry" />
        </mxCell>
        <mxCell id="n0gfTQVw-aHXXpMBViYb-4" style="edgeStyle=orthogonalEdgeStyle;rounded=0;orthogonalLoop=1;jettySize=auto;html=1;exitX=1;exitY=0.5;exitDx=0;exitDy=0;entryX=0;entryY=0.5;entryDx=0;entryDy=0;" edge="1" parent="WIyWlLk6GJQsqaUBKTNV-1" source="n0gfTQVw-aHXXpMBViYb-1" target="n0gfTQVw-aHXXpMBViYb-5">
          <mxGeometry relative="1" as="geometry">
            <mxPoint x="338" y="310" as="targetPoint" />
            <mxPoint x="318" y="260" as="sourcePoint" />
          </mxGeometry>
        </mxCell>
        <mxCell id="n0gfTQVw-aHXXpMBViYb-9" style="edgeStyle=orthogonalEdgeStyle;rounded=0;orthogonalLoop=1;jettySize=auto;html=1;entryX=0;entryY=0.5;entryDx=0;entryDy=0;" edge="1" parent="WIyWlLk6GJQsqaUBKTNV-1" source="n0gfTQVw-aHXXpMBViYb-5" target="n0gfTQVw-aHXXpMBViYb-8">
          <mxGeometry relative="1" as="geometry" />
        </mxCell>
        <mxCell id="n0gfTQVw-aHXXpMBViYb-5" value="CargoTrackItem" style="rounded=1;whiteSpace=wrap;html=1;fontSize=12;glass=0;strokeWidth=1;shadow=0;" vertex="1" parent="WIyWlLk6GJQsqaUBKTNV-1">
          <mxGeometry x="368" y="280" width="120" height="40" as="geometry" />
        </mxCell>
        <mxCell id="n0gfTQVw-aHXXpMBViYb-6" value="Get the routeSeqNumber to display the route title &amp;amp; 20GP * 1" style="rounded=1;whiteSpace=wrap;html=1;fontSize=12;glass=0;strokeWidth=1;shadow=0;" vertex="1" parent="WIyWlLk6GJQsqaUBKTNV-1">
          <mxGeometry x="518" y="160" width="120" height="70" as="geometry" />
        </mxCell>
        <mxCell id="n0gfTQVw-aHXXpMBViYb-8" value="handle each route&#39;s legInfos" style="rounded=1;whiteSpace=wrap;html=1;fontSize=12;glass=0;strokeWidth=1;shadow=0;" vertex="1" parent="WIyWlLk6GJQsqaUBKTNV-1">
          <mxGeometry x="518" y="265" width="120" height="70" as="geometry" />
        </mxCell>
        <mxCell id="n0gfTQVw-aHXXpMBViYb-10" value="提取legs中最大有效值 （通过判断是否存在实际离港/到港/track 轨迹）" style="rounded=1;whiteSpace=wrap;html=1;fontSize=12;glass=0;strokeWidth=1;shadow=0;" vertex="1" parent="WIyWlLk6GJQsqaUBKTNV-1">
          <mxGeometry x="658" y="265" width="120" height="70" as="geometry" />
        </mxCell>
        <mxCell id="n0gfTQVw-aHXXpMBViYb-11" value="判断是否是&amp;nbsp;" style="rounded=1;whiteSpace=wrap;html=1;fontSize=12;glass=0;strokeWidth=1;shadow=0;" vertex="1" parent="WIyWlLk6GJQsqaUBKTNV-1">
          <mxGeometry x="658" y="350" width="120" height="70" as="geometry" />
        </mxCell>
        <mxCell id="n0gfTQVw-aHXXpMBViYb-12" value="legs" style="rounded=1;whiteSpace=wrap;html=1;fontSize=12;glass=0;strokeWidth=1;shadow=0;" vertex="1" parent="WIyWlLk6GJQsqaUBKTNV-1">
          <mxGeometry x="58" y="370" width="120" height="70" as="geometry" />
        </mxCell>
        <mxCell id="n0gfTQVw-aHXXpMBViYb-13" value="container" style="rounded=1;whiteSpace=wrap;html=1;fontSize=12;glass=0;strokeWidth=1;shadow=0;" vertex="1" parent="WIyWlLk6GJQsqaUBKTNV-1">
          <mxGeometry x="60" y="640" width="120" height="55" as="geometry" />
        </mxCell>
        <mxCell id="n0gfTQVw-aHXXpMBViYb-14" value="port" style="rounded=1;whiteSpace=wrap;html=1;fontSize=12;glass=0;strokeWidth=1;shadow=0;" vertex="1" parent="WIyWlLk6GJQsqaUBKTNV-1">
          <mxGeometry x="56" y="1025" width="120" height="70" as="geometry" />
        </mxCell>
        <mxCell id="n0gfTQVw-aHXXpMBViYb-15" value="" style="shape=curlyBracket;whiteSpace=wrap;html=1;rounded=1;" vertex="1" parent="WIyWlLk6GJQsqaUBKTNV-1">
          <mxGeometry x="178" y="1000" width="20" height="120" as="geometry" />
        </mxCell>
        <mxCell id="n0gfTQVw-aHXXpMBViYb-17" value="show port" style="rounded=1;whiteSpace=wrap;html=1;fontSize=12;glass=0;strokeWidth=1;shadow=0;" vertex="1" parent="WIyWlLk6GJQsqaUBKTNV-1">
          <mxGeometry x="210" y="1005" width="70" height="20" as="geometry" />
        </mxCell>
        <mxCell id="n0gfTQVw-aHXXpMBViYb-18" value="show facility" style="rounded=1;whiteSpace=wrap;html=1;fontSize=12;glass=0;strokeWidth=1;shadow=0;" vertex="1" parent="WIyWlLk6GJQsqaUBKTNV-1">
          <mxGeometry x="210" y="1100" width="70" height="20" as="geometry" />
        </mxCell>
        <mxCell id="n0gfTQVw-aHXXpMBViYb-19" value="" style="shape=curlyBracket;whiteSpace=wrap;html=1;rounded=1;" vertex="1" parent="WIyWlLk6GJQsqaUBKTNV-1">
          <mxGeometry x="290" y="980" width="10" height="70" as="geometry" />
        </mxCell>
        <mxCell id="n0gfTQVw-aHXXpMBViYb-20" value="lost port lat/lan: show error" style="rounded=1;whiteSpace=wrap;html=1;fontSize=12;glass=0;strokeWidth=1;shadow=0;" vertex="1" parent="WIyWlLk6GJQsqaUBKTNV-1">
          <mxGeometry x="314" y="985" width="180" height="20" as="geometry" />
        </mxCell>
        <mxCell id="n0gfTQVw-aHXXpMBViYb-21" value="normal" style="rounded=1;whiteSpace=wrap;html=1;fontSize=12;glass=0;strokeWidth=1;shadow=0;" vertex="1" parent="WIyWlLk6GJQsqaUBKTNV-1">
          <mxGeometry x="314" y="1025" width="100" height="20" as="geometry" />
        </mxCell>
        <mxCell id="n0gfTQVw-aHXXpMBViYb-22" value="" style="shape=curlyBracket;whiteSpace=wrap;html=1;rounded=1;" vertex="1" parent="WIyWlLk6GJQsqaUBKTNV-1">
          <mxGeometry x="290" y="1075" width="10" height="70" as="geometry" />
        </mxCell>
        <mxCell id="n0gfTQVw-aHXXpMBViYb-23" value="leg.pol.portcode == leg.pod.portcode || &lt;br&gt;svvd == null || &lt;br&gt;vesselName/voyagenumber == null" style="rounded=1;whiteSpace=wrap;html=1;fontSize=12;glass=0;strokeWidth=1;shadow=0;" vertex="1" parent="WIyWlLk6GJQsqaUBKTNV-1">
          <mxGeometry x="314" y="1075" width="246" height="62.5" as="geometry" />
        </mxCell>
        <mxCell id="n0gfTQVw-aHXXpMBViYb-24" value="" style="shape=curlyBracket;whiteSpace=wrap;html=1;rounded=1;" vertex="1" parent="WIyWlLk6GJQsqaUBKTNV-1">
          <mxGeometry x="180" y="607.5" width="20" height="120" as="geometry" />
        </mxCell>
        <mxCell id="n0gfTQVw-aHXXpMBViYb-26" value="有 AIS" style="rounded=1;whiteSpace=wrap;html=1;fontSize=12;glass=0;strokeWidth=1;shadow=0;" vertex="1" parent="WIyWlLk6GJQsqaUBKTNV-1">
          <mxGeometry x="210" y="610" width="70" height="20" as="geometry" />
        </mxCell>
        <mxCell id="n0gfTQVw-aHXXpMBViYb-27" value="无 AIS" style="rounded=1;whiteSpace=wrap;html=1;fontSize=12;glass=0;strokeWidth=1;shadow=0;" vertex="1" parent="WIyWlLk6GJQsqaUBKTNV-1">
          <mxGeometry x="210" y="705" width="70" height="20" as="geometry" />
        </mxCell>
        <mxCell id="n0gfTQVw-aHXXpMBViYb-28" value="" style="shape=curlyBracket;whiteSpace=wrap;html=1;rounded=1;" vertex="1" parent="WIyWlLk6GJQsqaUBKTNV-1">
          <mxGeometry x="290" y="585" width="10" height="70" as="geometry" />
        </mxCell>
        <mxCell id="n0gfTQVw-aHXXpMBViYb-29" value="lost port lat/lan: show error" style="rounded=1;whiteSpace=wrap;html=1;fontSize=12;glass=0;strokeWidth=1;shadow=0;" vertex="1" parent="WIyWlLk6GJQsqaUBKTNV-1">
          <mxGeometry x="314" y="590" width="180" height="20" as="geometry" />
        </mxCell>
        <mxCell id="n0gfTQVw-aHXXpMBViYb-30" value="normal" style="rounded=1;whiteSpace=wrap;html=1;fontSize=12;glass=0;strokeWidth=1;shadow=0;" vertex="1" parent="WIyWlLk6GJQsqaUBKTNV-1">
          <mxGeometry x="314" y="630" width="100" height="20" as="geometry" />
        </mxCell>
        <mxCell id="n0gfTQVw-aHXXpMBViYb-31" value="" style="shape=curlyBracket;whiteSpace=wrap;html=1;rounded=1;" vertex="1" parent="WIyWlLk6GJQsqaUBKTNV-1">
          <mxGeometry x="290" y="680" width="10" height="70" as="geometry" />
        </mxCell>
        <mxCell id="n0gfTQVw-aHXXpMBViYb-32" value="leg.pol.portcode == leg.pod.portcode || &lt;br&gt;svvd == null || &lt;br&gt;vesselName/voyagenumber == null" style="rounded=1;whiteSpace=wrap;html=1;fontSize=12;glass=0;strokeWidth=1;shadow=0;" vertex="1" parent="WIyWlLk6GJQsqaUBKTNV-1">
          <mxGeometry x="314" y="680" width="246" height="62.5" as="geometry" />
        </mxCell>
      </root>
    </mxGraphModel>
  </diagram>
</mxfile>
